<svg xmlns="http://www.w3.org/2000/svg" width="657.576" height="1596.599" viewBox="0 0 657.576 1596.599">
  <title>Asset 100</title>
  <g id="Layer_2" data-name="Layer 2">
    <g id="Rashman_neutral_whole">
      <path d="M631.587,825.3c1.146,5.731,2.292,19.486,3.439,24.071s14.9,43.558,16.047,45.85,5.731,14.9,4.585,17.194-3.439,5.731-8.024,4.585-6.877-6.878-8.023-9.17-6.878-18.34-9.17-22.925-5.732-14.9-8.024-18.34-9.17-12.609-9.17,2.292,2.292,33.242,4.585,53.874-10.316,17.194-13.755,2.293a448.121,448.121,0,0,1-9.17-50.435c-2.293-19.487-6.878-14.9-6.878,0s1.147,52.727,0,55.02-12.608,8.023-13.755-2.293-2.292-44.7-3.438-59.605-5.732-12.609-8.024-2.292-4.585,22.925-5.731,29.8-13.755,17.194-13.755-1.146,5.731-37.826,4.585-45.85-2.293-58.459,0-69.921c-3.439-10.317-8.024-33.242-12.609-47s-36.68-88.261-38.973-97.431-6.877-40.119-6.877-67.629,0-24.071-1.146-34.387-12.609-50.435-13.755-77.945c-4.585,32.095-16.048,52.727-17.194,66.482s-5.731,37.827-1.146,64.19,11.462,32.1,10.316,56.167,0,36.68,2.292,48.142,8.024,22.925,9.17,60.751,3.439,82.53,5.732,93.993,9.17,71.067,5.731,96.285-19.486,98.577-19.486,98.577-17.194,49.289-17.194,63.044-5.731,36.68-3.439,59.605,14.9,91.7,8.024,128.38-29.8,154.744-30.949,173.084-1.146,41.265-1.146,49.289,3.439,19.486-2.293,29.8c6.878,9.17,2.293,9.17,14.9,19.486s27.51,16.048,28.656,19.487,4.585,12.608-1.146,13.755-84.823,1.146-84.823,1.146-21.779,2.292-24.071,0-6.878-8.024-4.585-14.9,5.731-10.317,3.439-14.9-9.17-35.533-8.024-45.85,5.731-18.34,5.731-28.656,3.439-52.727,0-89.407-9.17-87.115-10.316-108.894-1.146-51.581,6.877-81.384c0-29.8-5.731-32.1-6.877-47s-6.878-49.289-5.731-75.653,1.146-87.115,0-97.431c-.379-3.427-.768-12.162-1.1-22.5l-1.559-70.494-.011-1v-2.866a6.387,6.387,0,0,0-.436-2.3,7.424,7.424,0,0,1-11.737,0,6.387,6.387,0,0,0-.436,2.3v2.866c0,1.329-.39,26.191-.057,45.861l-.035,26.2h-.011c-.126,3.611-.252,6.992-.378,9.984-.218,4.929-.447,8.781-.665,10.8-1.146,10.316-1.146,71.067,0,97.431s-4.585,60.751-5.731,75.653-6.878,17.193-6.878,47c8.024,29.8,8.024,59.605,6.878,81.384s-6.878,72.213-10.317,108.893,0,79.092,0,89.408,4.585,18.34,5.732,28.656-5.732,41.265-8.024,45.85,1.146,8.024,3.439,14.9-2.293,12.609-4.585,14.9-24.072,0-24.072,0-79.091,0-84.822-1.147-2.293-10.316-1.146-13.755,16.047-9.17,28.656-19.486,8.024-10.316,14.9-19.486c-5.731-10.316-2.292-21.779-2.292-29.8s0-30.948-1.147-49.288-24.071-136.4-30.948-173.084,5.731-105.455,8.023-128.38-3.438-45.85-3.438-59.605-17.194-63.044-17.194-63.044S171.562,964,168.124,938.779s3.438-84.823,5.731-96.285,4.585-56.167,5.731-93.993,6.878-49.289,9.17-60.751,3.439-24.071,2.293-48.143,5.731-29.8,10.316-56.166,0-50.435-1.146-64.19-12.609-34.387-17.194-66.482c-1.146,27.51-12.609,67.628-13.755,77.945s-1.146,6.877-1.146,34.387-4.585,58.459-6.878,67.629-34.387,83.676-38.972,97.431-9.17,36.68-12.609,47c2.292,11.463,1.146,61.9,0,69.922s4.585,27.51,4.585,45.85-12.609,8.023-13.755,1.146-3.439-19.486-5.731-29.8-6.878-12.608-8.024,2.293-2.293,49.289-3.439,59.6-12.609,4.585-13.755,2.292,0-40.118,0-55.02-4.585-19.486-6.877,0a448.489,448.489,0,0,1-9.17,50.435c-3.439,14.9-16.048,18.34-13.755-2.292s4.585-38.973,4.585-53.874-6.878-5.731-9.17-2.292-5.732,13.755-8.024,18.34-8.024,20.632-9.17,22.925-3.439,8.023-8.024,9.17-6.877-2.293-8.024-4.585,3.439-14.9,4.585-17.194,14.9-41.265,16.048-45.85,2.292-18.34,3.439-24.071,2.292-9.17-1.147-10.317-2.292,5.732-4.585,11.463-4.585,8.024-6.877,9.17S3.064,837.909.771,835.616s1.146-5.731,2.293-8.024S1.917,816.13,4.21,810.4s16.047-27.51,18.34-30.949,17.194-12.609,20.632-18.34,13.755-52.728,16.048-81.384,9.17-87.115,10.316-93.992,22.925-56.167,24.071-92.847,10.317-59.605,11.463-67.628-1.146-18.34-2.293-26.364c-.584-4.069-.871-17.561-.859-31.373v-.011c.011-13.434.3-27.155.859-32.806.745-7.393,7.21-22.444,11.715-32.175-.011-.012,0-.012.012-.023a93.775,93.775,0,0,1,18.351-21.378c.011-.011.011-.023.023-.023,11.187-7.84,29.619-17.491,57.358-23.039a.042.042,0,0,1,.035-.012c.664-.034,1.341-.069,2.017-.091l-.057-.058c11.783-3.106,30.994-10.259,47.214-18.9,13.686-7.291,25.24-15.635,28.392-23.51a84.914,84.914,0,0,0,5.892-31.51c0-.138,0-.276-.011-.39-.012-.608-.035-.94-.035-.94-.023-.436-.034-.871-.046-1.318-.057-2.018-.1-4.115-.1-6.3-3.7-9.181-5.135-22.111-5.7-29.458,0-.035-.011-.081-.011-.126.046-.275.011-.722-.057-.665a6.672,6.672,0,0,1-2.591,1.261c-7.084,1.639-15.7-9.422-19.245-24.713s-.654-29.012,6.441-30.651a7.875,7.875,0,0,1,5.972,1.295v.012c.493.3,2.132.47,2.614.859l-1.158.184c.539.424-.481-5.457-1.135-9.056-.412-3.656-.813-7.565-1.123-11.428a.23.23,0,0,1-.011-.08c-.012-.47-.012-.929-.012-1.4a72.1,72.1,0,0,1,34.2-61.4.642.642,0,0,1,.149-.092,72.192,72.192,0,0,1,108.16,62.643c0,.47,0,.928-.011,1.4a.212.212,0,0,1-.012.08c-.309,3.863-.71,7.772-1.123,11.429a71.442,71.442,0,0,1-2.739,10.511c.527-.539,1.9-1.089,2.166-1.892,2.3-1.708,4.654-2.43,6.866-1.914,7.084,1.639,9.972,15.371,6.431,30.651s-12.151,26.352-19.246,24.713a6.5,6.5,0,0,1-2.373-1.1c-.034-.3-.08-.6-.126-.883-.034.264-.057.5-.08.734-.023.286-2.063,21.056-5.766,30.238,0,1.329-.011,2.613-.046,3.874-.183,9.525,1.158,16.093.78,22.833a82.572,82.572,0,0,0,10.591,15.52,116.011,116.011,0,0,0,22.833,20.564c.046.035.092.057.138.092a127.191,127.191,0,0,0,48.2,19.99c.264.046.516.1.768.149,27.762,5.548,46.2,15.211,57.393,23.052a93.71,93.71,0,0,1,18.42,21.469c4.493,9.743,10.947,24.747,11.68,32.129.562,5.651.848,19.383.86,32.817.011,13.813-.275,27.3-.86,31.373-1.146,8.024-3.439,18.34-2.292,26.364s10.316,30.949,11.462,67.629S586.883,580,588.029,586.88s8.024,65.336,10.317,93.992,12.608,75.653,16.047,81.384,18.34,14.9,20.633,18.34,16.047,25.218,18.34,30.949,0,14.9,1.146,17.194,4.585,5.731,2.292,8.023-10.316,0-12.608-1.146-4.585-3.439-6.878-9.17-1.146-12.609-4.585-11.462S630.441,819.569,631.587,825.3Z" fill="#447cbf"/>
    </g>
  </g>
</svg>
